<svg xmlns="http://www.w3.org/2000/svg" viewBox="0 0 1200 720" fill="none">
  <rect width="1200" height="720" fill="#e2eef8"/>
  <rect x="48" y="48" width="1104" height="624" rx="24" fill="#fff"/>
  <rect x="88" y="92" width="240" height="20" rx="6" fill="#0f172a" opacity="0.8"/>
  <rect x="88" y="140" width="320" height="120" rx="16" fill="#f0f9ff"/>
  <rect x="108" y="168" width="120" height="14" rx="4" fill="#64748b"/>
  <rect x="108" y="196" width="80" height="28" rx="6" fill="#0284c7"/>
  <rect x="432" y="140" width="320" height="120" rx="16" fill="#f8fafc"/>
  <rect x="776" y="140" width="320" height="120" rx="16" fill="#f8fafc"/>
  <rect x="88" y="292" width="1008" height="300" rx="18" fill="#f8fafc"/>
  <rect x="120" y="324" width="180" height="12" rx="4" fill="#64748b"/>
  <rect x="120" y="360" width="944" height="12" rx="4" fill="#e2e8f0"/>
  <rect x="120" y="392" width="944" height="12" rx="4" fill="#e2e8f0"/>
  <rect x="120" y="424" width="944" height="12" rx="4" fill="#e2e8f0"/>
  <rect x="120" y="456" width="944" height="12" rx="4" fill="#e2e8f0"/>
</svg>
